<?xml version="1.0" encoding="UTF-8"?>
<svg xmlns="http://www.w3.org/2000/svg" width="840" height="1120" viewBox="0 0 840 1120" role="img" aria-labelledby="title subtitle">
  <title id="title">N1RWJ at US-6984</title>
  <desc id="subtitle">Black Hut Wildlife Management Area · 25 QSOs · May 27, 2026</desc>
  <rect width="840" height="1120" fill="#f7f4ee"/>
  <rect x="24" y="24" width="792" height="1072" fill="#fffdfa" stroke="#d6ddd5"/>
  <text x="52" y="74" fill="#172026" font-size="40" font-weight="800" font-family="system-ui, sans-serif">N1RWJ at US-6984</text>
  <text x="52" y="140" fill="#5f6f79" font-size="22" font-family="system-ui, sans-serif">Black Hut Wildlife Management Area · 25 QSOs · May 27, 2026</text>
  
        <circle cx="52" cy="103" r="7" fill="#1e6f4f" stroke="#172026" stroke-width="1.5"/>
        <text x="68" y="109" fill="#5f6f79" font-size="22" font-family="ui-monospace, SFMono-Regular, Menlo, monospace">40m 12</text>
      
        <circle cx="184" cy="103" r="7" fill="#1774d1" stroke="#172026" stroke-width="1.5"/>
        <text x="200" y="109" fill="#5f6f79" font-size="22" font-family="ui-monospace, SFMono-Regular, Menlo, monospace">20m 13</text>
      
  <rect x="52" y="196" width="736" height="860" rx="18" fill="#eef3ec" stroke="#d6ddd5"/>
  <line x1="146.96774193548387" y1="1056" x2="146.96774193548387" y2="196" stroke="#d6ddd5" stroke-width="1"/><line x1="265.6774193548387" y1="1056" x2="265.6774193548387" y2="196" stroke="#d6ddd5" stroke-width="1"/><line x1="384.38709677419354" y1="1056" x2="384.38709677419354" y2="196" stroke="#d6ddd5" stroke-width="1"/><line x1="503.0967741935484" y1="1056" x2="503.0967741935484" y2="196" stroke="#d6ddd5" stroke-width="1"/><line x1="621.8064516129032" y1="1056" x2="621.8064516129032" y2="196" stroke="#d6ddd5" stroke-width="1"/><line x1="740.516129032258" y1="1056" x2="740.516129032258" y2="196" stroke="#d6ddd5" stroke-width="1"/><line x1="52" y1="1024.1481481481483" x2="788" y2="1024.1481481481483" stroke="#d6ddd5" stroke-width="1"/><line x1="52" y1="864.8888888888889" x2="788" y2="864.8888888888889" stroke="#d6ddd5" stroke-width="1"/><line x1="52" y1="705.6296296296296" x2="788" y2="705.6296296296296" stroke="#d6ddd5" stroke-width="1"/><line x1="52" y1="546.3703703703704" x2="788" y2="546.3703703703704" stroke="#d6ddd5" stroke-width="1"/><line x1="52" y1="387.1111111111111" x2="788" y2="387.1111111111111" stroke="#d6ddd5" stroke-width="1"/><line x1="52" y1="227.8518518518519" x2="788" y2="227.8518518518519" stroke="#d6ddd5" stroke-width="1"/>
  <text x="123.2258064516129" y="705.6296296296296" fill="#9aa5a0" font-size="20" font-family="ui-monospace, SFMono-Regular, Menlo, monospace" text-anchor="middle">Pacific</text><text x="461.54838709677415" y="492.2222222222221" fill="#9aa5a0" font-size="20" font-family="ui-monospace, SFMono-Regular, Menlo, monospace" text-anchor="middle">Midwest</text><text x="687.0967741935484" y="412.5925925925925" fill="#9aa5a0" font-size="20" font-family="ui-monospace, SFMono-Regular, Menlo, monospace" text-anchor="middle">Northeast</text><text x="514.9677419354839" y="753.4074074074074" fill="#9aa5a0" font-size="20" font-family="ui-monospace, SFMono-Regular, Menlo, monospace" text-anchor="middle">South</text>
  <text x="70" y="1038" fill="#9aa5a0" font-size="16" font-family="ui-monospace, SFMono-Regular, Menlo, monospace">Generated from ADI data · 25 plotted · 24 from grid · 1 from state centroid</text>
  <line x1="720.6817204301076" y1="482.9984567901234" x2="592.6236559139785" y2="655.8611111111111" stroke="#1e6f4f" stroke-opacity="0.28" stroke-width="1.6"/><line x1="720.6817204301076" y1="482.9984567901234" x2="652.9677419354839" y2="484.6574074074074" stroke="#1e6f4f" stroke-opacity="0.28" stroke-width="1.6"/><line x1="720.6817204301076" y1="482.9984567901234" x2="723.2043010752689" y2="500.5833333333333" stroke="#1e6f4f" stroke-opacity="0.28" stroke-width="1.6"/><line x1="720.6817204301076" y1="482.9984567901234" x2="693.5268817204302" y2="516.5092592592594" stroke="#1e6f4f" stroke-opacity="0.28" stroke-width="1.6"/><line x1="720.6817204301076" y1="482.9984567901234" x2="651.978494623656" y2="584.1944444444443" stroke="#1e6f4f" stroke-opacity="0.28" stroke-width="1.6"/><line x1="720.6817204301076" y1="482.9984567901234" x2="575.8064516129032" y2="483.33024691358014" stroke="#1e6f4f" stroke-opacity="0.28" stroke-width="1.6"/><line x1="720.6817204301076" y1="482.9984567901234" x2="494.6881720430108" y2="675.7685185185185" stroke="#1774d1" stroke-opacity="0.28" stroke-width="1.6"/><line x1="720.6817204301076" y1="482.9984567901234" x2="605.483870967742" y2="857.5895061728395" stroke="#1774d1" stroke-opacity="0.28" stroke-width="1.6"/><line x1="720.6817204301076" y1="482.9984567901234" x2="640.1075268817206" y2="689.0401234567901" stroke="#1774d1" stroke-opacity="0.28" stroke-width="1.6"/><line x1="720.6817204301076" y1="482.9984567901234" x2="575.8064516129032" y2="483.33024691358014" stroke="#1774d1" stroke-opacity="0.28" stroke-width="1.6"/><line x1="720.6817204301076" y1="482.9984567901234" x2="464.0215053763442" y2="385.12037037037044" stroke="#1774d1" stroke-opacity="0.28" stroke-width="1.6"/><line x1="720.6817204301076" y1="482.9984567901234" x2="498.64516129032256" y2="813.7932098765433" stroke="#1774d1" stroke-opacity="0.28" stroke-width="1.6"/><line x1="720.6817204301076" y1="482.9984567901234" x2="640.1075268817206" y2="686.3858024691356" stroke="#1774d1" stroke-opacity="0.28" stroke-width="1.6"/><line x1="720.6817204301076" y1="482.9984567901234" x2="505.5698924731184" y2="703.6388888888889" stroke="#1774d1" stroke-opacity="0.28" stroke-width="1.6"/><line x1="720.6817204301076" y1="482.9984567901234" x2="723.2043010752689" y2="500.5833333333333" stroke="#1774d1" stroke-opacity="0.28" stroke-width="1.6"/><line x1="720.6817204301076" y1="482.9984567901234" x2="547.5146353548387" y2="551.166431111111" stroke="#1774d1" stroke-opacity="0.28" stroke-width="1.6"/><line x1="720.6817204301076" y1="482.9984567901234" x2="461.0537634408603" y2="641.2623456790122" stroke="#1774d1" stroke-opacity="0.28" stroke-width="1.6"/><line x1="720.6817204301076" y1="482.9984567901234" x2="722.215053763441" y2="482.00308641975295" stroke="#1774d1" stroke-opacity="0.28" stroke-width="1.6"/><line x1="720.6817204301076" y1="482.9984567901234" x2="465.01075268817215" y2="651.8796296296296" stroke="#1774d1" stroke-opacity="0.28" stroke-width="1.6"/><line x1="720.6817204301076" y1="482.9984567901234" x2="725.1827956989248" y2="483.33024691358014" stroke="#1e6f4f" stroke-opacity="0.28" stroke-width="1.6"/><line x1="720.6817204301076" y1="482.9984567901234" x2="725.1827956989248" y2="466.0771604938271" stroke="#1e6f4f" stroke-opacity="0.28" stroke-width="1.6"/><line x1="720.6817204301076" y1="482.9984567901234" x2="682.6451612903226" y2="411.6635802469134" stroke="#1e6f4f" stroke-opacity="0.28" stroke-width="1.6"/><line x1="720.6817204301076" y1="482.9984567901234" x2="695.5053763440861" y2="505.89197530864186" stroke="#1e6f4f" stroke-opacity="0.28" stroke-width="1.6"/><line x1="720.6817204301076" y1="482.9984567901234" x2="699.4623655913979" y2="496.6018518518519" stroke="#1e6f4f" stroke-opacity="0.28" stroke-width="1.6"/><line x1="720.6817204301076" y1="482.9984567901234" x2="654.9462365591398" y2="582.8672839506171" stroke="#1e6f4f" stroke-opacity="0.28" stroke-width="1.6"/>
  <circle cx="592.6236559139785" cy="655.8611111111111" r="5.5" fill="#1e6f4f" stroke="#172026" stroke-width="1.5"/><circle cx="652.9677419354839" cy="484.6574074074074" r="5.5" fill="#1e6f4f" stroke="#172026" stroke-width="1.5"/><circle cx="723.2043010752689" cy="500.5833333333333" r="5.5" fill="#1e6f4f" stroke="#172026" stroke-width="1.5"/><circle cx="693.5268817204302" cy="516.5092592592594" r="5.5" fill="#1e6f4f" stroke="#172026" stroke-width="1.5"/><circle cx="651.978494623656" cy="584.1944444444443" r="5.5" fill="#1e6f4f" stroke="#172026" stroke-width="1.5"/><circle cx="575.8064516129032" cy="483.33024691358014" r="5.5" fill="#1e6f4f" stroke="#172026" stroke-width="1.5"/><circle cx="494.6881720430108" cy="675.7685185185185" r="5.5" fill="#1774d1" stroke="#172026" stroke-width="1.5"/><circle cx="605.483870967742" cy="857.5895061728395" r="5.5" fill="#1774d1" stroke="#172026" stroke-width="1.5"/><circle cx="640.1075268817206" cy="689.0401234567901" r="5.5" fill="#1774d1" stroke="#172026" stroke-width="1.5"/><circle cx="575.8064516129032" cy="483.33024691358014" r="5.5" fill="#1774d1" stroke="#172026" stroke-width="1.5"/><circle cx="464.0215053763442" cy="385.12037037037044" r="5.5" fill="#1774d1" stroke="#172026" stroke-width="1.5"/><circle cx="498.64516129032256" cy="813.7932098765433" r="5.5" fill="#1774d1" stroke="#172026" stroke-width="1.5"/><circle cx="640.1075268817206" cy="686.3858024691356" r="5.5" fill="#1774d1" stroke="#172026" stroke-width="1.5"/><circle cx="505.5698924731184" cy="703.6388888888889" r="5.5" fill="#1774d1" stroke="#172026" stroke-width="1.5"/><circle cx="723.2043010752689" cy="500.5833333333333" r="5.5" fill="#1774d1" stroke="#172026" stroke-width="1.5"/><circle cx="547.5146353548387" cy="551.166431111111" r="5.5" fill="#1774d1" stroke="#172026" stroke-width="1.5"/><circle cx="461.0537634408603" cy="641.2623456790122" r="5.5" fill="#1774d1" stroke="#172026" stroke-width="1.5"/><circle cx="722.215053763441" cy="482.00308641975295" r="5.5" fill="#1774d1" stroke="#172026" stroke-width="1.5"/><circle cx="465.01075268817215" cy="651.8796296296296" r="5.5" fill="#1774d1" stroke="#172026" stroke-width="1.5"/><circle cx="725.1827956989248" cy="483.33024691358014" r="5.5" fill="#1e6f4f" stroke="#172026" stroke-width="1.5"/><circle cx="725.1827956989248" cy="466.0771604938271" r="5.5" fill="#1e6f4f" stroke="#172026" stroke-width="1.5"/><circle cx="682.6451612903226" cy="411.6635802469134" r="5.5" fill="#1e6f4f" stroke="#172026" stroke-width="1.5"/><circle cx="695.5053763440861" cy="505.89197530864186" r="5.5" fill="#1e6f4f" stroke="#172026" stroke-width="1.5"/><circle cx="699.4623655913979" cy="496.6018518518519" r="5.5" fill="#1e6f4f" stroke="#172026" stroke-width="1.5"/><circle cx="654.9462365591398" cy="582.8672839506171" r="5.5" fill="#1e6f4f" stroke="#172026" stroke-width="1.5"/>
  <circle cx="720.6817204301076" cy="482.9984567901234" r="8.5" fill="#172026" stroke="#fffdfa" stroke-width="3"/>
  <text x="734.6817204301076" y="468.9984567901234" fill="#172026" font-size="20" font-weight="800" font-family="system-ui, sans-serif">N1RWJ</text>
</svg>